<?xml version="1.0" encoding="utf-8" ?>
<svg xmlns="http://www.w3.org/2000/svg" xmlns:xlink="http://www.w3.org/1999/xlink" width="32" height="32">
	<path fill="#CA0081" transform="scale(0.0625 0.0625)" d="M133.967 167.335C122.393 169.219 129.778 146.544 107.891 138.314C102.56 136.31 92.1568 134.935 96.9347 126.418C99.8217 121.272 117.626 124.695 124.329 105.243C125.849 100.831 125.592 95.9118 130.845 94.3047C143.599 93.3068 135.463 114.583 157.437 122.253C162.47 124.01 171.238 124.99 168.283 132.855C165.743 139.614 146.786 135.341 140.161 156.031C138.688 160.632 139.097 165.21 133.967 167.335ZM132.572 117.459C128.636 122.49 124.172 126.53 118.908 130.128C124.638 133.695 128.494 137.993 132.572 143.314C136.486 138.271 140.418 133.64 145.83 130.128C140.804 126.475 136.239 122.513 132.572 117.459Z"/>
	<path fill="#CA0081" transform="scale(0.0625 0.0625)" d="M323.57 143.314C335.545 123.278 357.007 112.373 379.601 109.244C415.652 105.474 449.325 136.719 450.468 172.749C451.417 202.653 435.426 232.21 415.289 253.629C426.758 260.407 441.678 263.457 417.688 273.543L403.553 279.484C401.055 280.535 397.925 281.557 395.893 283.4C389.539 289.161 379.465 333.324 369.487 307.695C359.327 315.575 349.683 324.427 339.96 332.845C325.549 345.324 327.351 348.869 314.253 337.525L295.519 321.045C292.363 318.311 289.134 315.11 285.537 313L285.158 312.781C276.96 326.378 270.82 334.762 259.63 346.383C252.211 354.088 188.274 416.692 179.52 417.619C174.361 418.165 147.439 393.077 142.747 388.919C138.063 384.95 133.678 380.555 129.178 376.381C96.3362 345.917 53.9965 304.821 58.7557 256.074C62.1658 221.145 95.3339 195.154 129.946 198.963C151.23 201.305 165.562 211.814 178.398 227.723C186.263 217.788 194.95 209.344 206.743 204.236C200.258 189.123 198.01 173.133 202.154 157.011C216.846 99.8502 295.002 94.4801 323.57 143.314ZM382.917 121.517C363.614 122.386 343.813 133.094 333.943 149.999C332.256 152.888 330.05 158.623 327.847 160.779C320.133 168.329 314.961 151.921 312.224 147.877C292.944 119.402 251.817 112.498 227.11 137.698C210.926 154.204 207.984 180.185 218.778 200.391C255.671 193.057 291.491 213.647 298.96 251.622C302.65 270.386 297.527 283.568 291.054 300.67C296.772 306.176 303.002 311.263 309.024 316.438C314.153 320.926 319.27 325.442 324.49 329.824C337 318.869 352.423 307.332 364.059 295.867C362.106 291.793 360.045 286.45 356.609 283.418C346.433 274.439 304.865 269.645 332.81 256.682L343.972 251.396C363.361 242.211 360.917 239.267 368.587 220.404C373.493 208.339 377.654 206.459 383.438 220.329C389.109 233.929 390.172 242.073 403.702 248.823C407.04 244.809 410.655 241.077 413.84 236.931C436.504 207.424 453.224 162.462 419.421 134.35C411.133 127.457 393.956 119.123 382.917 121.517ZM232.107 211.015C214.835 211.495 197.794 220.858 188.334 235.405C185.568 239.658 180.794 250.006 173.763 242.945C172.103 241.278 171.133 238.767 169.877 236.798C141.377 192.137 72.0185 209.658 70.6562 261.404C69.6827 298.38 98.3826 328.846 122.822 353.052C126.061 356.261 130.12 359.497 132.572 363.328C135.284 365.267 137.632 367.572 140.098 369.803L152.167 380.832C160.859 388.769 169.971 396.344 179.164 403.692C194.211 392.115 210.563 376.987 224.399 363.842C251.715 337.891 282.33 310.185 287.472 270.325C291.523 238.92 263.334 207.837 232.107 211.015ZM376.742 234.931C373.912 238.727 372.566 243.035 370.11 246.993C363.971 256.885 354.823 258.546 345.483 264.088C354.028 267.884 363.377 271.045 368.859 279.133C371.926 283.658 375.803 293.522 376.742 293.414C387.925 271.018 385.591 275.082 407.436 264.088C391.032 254.542 386.265 256.114 377.85 237.817C377.441 236.928 377.218 235.732 376.742 234.931Z"/>
	<path fill="#CA0081" transform="scale(0.0625 0.0625)" d="M229.782 184.074C214.336 187.18 220.247 138.508 259.116 133.842C264.095 133.126 268.098 137.85 265.844 142.679C263.005 148.761 237.49 144.858 234.642 171.507C234.08 176.76 235.713 181.839 229.782 184.074Z"/>
	<path fill="#CA0081" transform="scale(0.0625 0.0625)" d="M392.496 368.266C383.84 368.808 385.03 357.55 380.402 352.787C376.62 348.895 361.958 346.346 363.712 339.556C365.019 334.496 375.725 332.915 379.712 329.715C384.807 325.626 383.832 314.677 390.611 312.781C398.696 313.126 398.088 324.349 402.841 328.908C406.798 332.703 416.978 333.781 419.172 338.794C422.68 346.81 407.047 347.697 403.356 351.199C398.735 355.586 398.691 365.608 392.496 368.266ZM391.578 334.679C389.514 336.865 387.43 338.973 385.054 340.829C387.92 342.878 389.04 344.705 391.394 347.112L391.578 347.045C393.31 344.291 395.165 342.514 397.949 340.829C395.331 338.782 393.438 336.185 391.578 334.679Z"/>
</svg>
